<svg id="visual" viewBox="0 0 3840 2160" width="3840" height="2160" xmlns="http://www.w3.org/2000/svg" xmlns:xlink="http://www.w3.org/1999/xlink" version="1.1"><rect x="0" y="0" width="3840" height="2160" fill="#0e2c35"></rect><defs><linearGradient id="grad1_0" x1="43.8%" y1="0%" x2="100%" y2="100%"><stop offset="14.444444444444446%" stop-color="#22c55e" stop-opacity="1"></stop><stop offset="85.55555555555554%" stop-color="#22c55e" stop-opacity="1"></stop></linearGradient></defs><defs><linearGradient id="grad1_1" x1="43.8%" y1="0%" x2="100%" y2="100%"><stop offset="14.444444444444446%" stop-color="#22c55e" stop-opacity="1"></stop><stop offset="85.55555555555554%" stop-color="#00776f" stop-opacity="1"></stop></linearGradient></defs><defs><linearGradient id="grad1_2" x1="43.8%" y1="0%" x2="100%" y2="100%"><stop offset="14.444444444444446%" stop-color="#0e2c35" stop-opacity="1"></stop><stop offset="85.55555555555554%" stop-color="#00776f" stop-opacity="1"></stop></linearGradient></defs><defs><linearGradient id="grad2_0" x1="0%" y1="0%" x2="56.3%" y2="100%"><stop offset="14.444444444444446%" stop-color="#22c55e" stop-opacity="1"></stop><stop offset="85.55555555555554%" stop-color="#22c55e" stop-opacity="1"></stop></linearGradient></defs><defs><linearGradient id="grad2_1" x1="0%" y1="0%" x2="56.3%" y2="100%"><stop offset="14.444444444444446%" stop-color="#00776f" stop-opacity="1"></stop><stop offset="85.55555555555554%" stop-color="#22c55e" stop-opacity="1"></stop></linearGradient></defs><defs><linearGradient id="grad2_2" x1="0%" y1="0%" x2="56.3%" y2="100%"><stop offset="14.444444444444446%" stop-color="#00776f" stop-opacity="1"></stop><stop offset="85.55555555555554%" stop-color="#0e2c35" stop-opacity="1"></stop></linearGradient></defs><g transform="translate(3840, 0)"><path d="M0 1836C-161.1 1694 -322.2 1551.9 -471.3 1450.4C-620.3 1348.8 -757.4 1287.6 -872.9 1201.4C-988.4 1115.1 -1082.3 1003.8 -1244.3 904C-1406.2 804.3 -1636.2 716.1 -1746.1 567.4C-1856.1 418.6 -1846 209.3 -1836 0L0 0Z" fill="#00505a"></path><path d="M0 1224C-107.4 1129.3 -214.8 1034.6 -314.2 966.9C-413.5 899.2 -504.9 858.4 -581.9 800.9C-658.9 743.4 -721.5 669.2 -829.5 602.7C-937.5 536.2 -1090.8 477.4 -1164.1 378.2C-1237.4 279.1 -1230.7 139.5 -1224 0L0 0Z" fill="#009f71"></path><path d="M0 612C-53.7 564.7 -107.4 517.3 -157.1 483.5C-206.8 449.6 -252.5 429.2 -291 400.5C-329.5 371.7 -360.8 334.6 -414.8 301.3C-468.7 268.1 -545.4 238.7 -582 189.1C-618.7 139.5 -615.3 69.8 -612 0L0 0Z" fill="#22c55e"></path></g><g transform="translate(0, 2160)"><path d="M0 -1836C205.4 -1839.5 410.7 -1842.9 567.4 -1746.1C724 -1649.3 831.8 -1452.2 942.8 -1297.7C1053.8 -1143.1 1167.9 -1031 1237.8 -899.3C1307.7 -767.6 1333.3 -616.4 1425.6 -463.2C1518 -310.1 1677 -155 1836 0L0 0Z" fill="#00505a"></path><path d="M0 -1224C136.9 -1226.3 273.8 -1228.6 378.2 -1164.1C482.6 -1099.6 554.5 -968.2 628.5 -865.1C702.5 -762.1 778.6 -687.3 825.2 -599.5C871.8 -511.8 888.9 -410.9 950.4 -308.8C1012 -206.7 1118 -103.4 1224 0L0 0Z" fill="#009f71"></path><path d="M0 -612C68.5 -613.2 136.9 -614.3 189.1 -582C241.3 -549.8 277.3 -484.1 314.3 -432.6C351.3 -381 389.3 -343.7 412.6 -299.8C435.9 -255.9 444.4 -205.5 475.2 -154.4C506 -103.4 559 -51.7 612 0L0 0Z" fill="#22c55e"></path></g></svg>